<svg width="12" height="16" viewBox="0 0 12 16" fill="none" xmlns="http://www.w3.org/2000/svg">
<path d="M11.9 3.8C11.9 3.4134 11.5866 3.1 11.2 3.1C10.8134 3.1 10.5 3.4134 10.5 3.8H11.9ZM2.10002 3.8C2.10002 3.4134 1.78662 3.1 1.40002 3.1C1.01343 3.1 0.700024 3.4134 0.700024 3.8H2.10002ZM2.80002 3.8C2.80002 4.1866 3.11343 4.5 3.50002 4.5C3.88662 4.5 4.20002 4.1866 4.20002 3.8H2.80002ZM8.40002 3.8C8.40002 4.1866 8.71342 4.5 9.10002 4.5C9.48662 4.5 9.80002 4.1866 9.80002 3.8H8.40002ZM10.5 3.8V13.6H11.9V3.8H10.5ZM10.5 13.6C10.5 13.9866 10.1866 14.3 9.80002 14.3V15.7C10.9598 15.7 11.9 14.7598 11.9 13.6H10.5ZM9.80002 14.3H2.80002V15.7H9.80002V14.3ZM2.80002 14.3C2.41342 14.3 2.10002 13.9866 2.10002 13.6H0.700024C0.700024 14.7598 1.64023 15.7 2.80002 15.7V14.3ZM2.10002 13.6V3.8H0.700024V13.6H2.10002ZM4.20002 3.8V2.4H2.80002V3.8H4.20002ZM4.20002 2.4C4.20002 2.0134 4.51342 1.7 4.90002 1.7V0.3C3.74023 0.3 2.80002 1.2402 2.80002 2.4H4.20002ZM4.90002 1.7H7.70002V0.3H4.90002V1.7ZM7.70002 1.7C8.08662 1.7 8.40002 2.0134 8.40002 2.4H9.80002C9.80002 1.2402 8.85982 0.3 7.70002 0.3V1.7ZM8.40002 2.4V3.8H9.80002V2.4H8.40002Z" fill="#2D3A45"/>
</svg>
