<svg width="17" height="15" viewBox="0 0 17 15" fill="none" xmlns="http://www.w3.org/2000/svg">
<g opacity="0.5">
<rect y="1" width="10.9091" height="9.45455" stroke="#2D3A45" stroke-width="1.4" stroke-linecap="round" stroke-linejoin="round"/>
<path fill-rule="evenodd" clip-rule="evenodd" d="M10.9092 4.63637H13.8183L16.0001 6.81819V10.4545H10.9092V4.63637V4.63637Z" stroke="#2D3A45" stroke-width="1.4" stroke-linecap="round" stroke-linejoin="round"/>
<path fill-rule="evenodd" clip-rule="evenodd" d="M3.27277 14.0909C4.27693 14.0909 5.09095 13.2769 5.09095 12.2727C5.09095 11.2686 4.27693 10.4545 3.27277 10.4545C2.26862 10.4545 1.45459 11.2686 1.45459 12.2727C1.45459 13.2769 2.26862 14.0909 3.27277 14.0909Z" stroke="#2D3A45" stroke-width="1.4" stroke-linecap="round" stroke-linejoin="round"/>
<path fill-rule="evenodd" clip-rule="evenodd" d="M12.7274 14.0909C13.7315 14.0909 14.5455 13.2769 14.5455 12.2727C14.5455 11.2686 13.7315 10.4545 12.7274 10.4545C11.7232 10.4545 10.9092 11.2686 10.9092 12.2727C10.9092 13.2769 11.7232 14.0909 12.7274 14.0909Z" stroke="#2D3A45" stroke-width="1.4" stroke-linecap="round" stroke-linejoin="round"/>
</g>
</svg>
